# xmcd
#
# Track frame offsets:
#	150
#	12871
#	27556
#	49179
#	62058
#	79981
#	94472
#	108156
#	121555
#	138072
#	148870
#	162722
# Disc length: 2388 seconds
# Revision: 1
# Processed by: cddbd v1.5.1PL2 Copyright (c) Steve Scherf et al.
#
# Submitted via: libkcddb 0.31
#
DISCID=a309520c
DTITLE=Various Artist - TAKKO'S Fussball Knaller
DYEAR=2006
DGENRE=Other
TTITLE0=Bellini - Samba de Janeiro
TTITLE1=Right Said Fred - We are the Champs
TTITLE2=Gloria Gayner - I will survive
TTITLE3=Strandgeier - Deutschland Olé
TTITLE4=Opus - Live is Life
TTITLE5=Westkurve - Ein Rudi Völler
TTITLE6=Theo Lingen - Der Theodor im Fussballtor
TTITLE7=Ray Miller - Deutschland vor, noch ein Tor
TTITLE8=Schwarz and Weiss - Fussball ist unser Leben
TTITLE9=Gerry and the Pacemakers - You'll never walk alone
TTITLE10=Nektarios - We are the Champions
TTITLE11=Sound Convoy - Ohne Holland fahr'n wir zur WM
EXTD=
EXTT0=
EXTT1=
EXTT2=
EXTT3=
EXTT4=
EXTT5=
EXTT6=
EXTT7=
EXTT8=
EXTT9=
EXTT10=
EXTT11=
PLAYORDER=
